<?xml version="1.0" encoding="UTF-8"?>
<svg width="36px" height="42px" viewBox="0 0 36 42" version="1.1" xmlns="http://www.w3.org/2000/svg" xmlns:xlink="http://www.w3.org/1999/xlink">
    <title>87F5EE83-1E03-406D-A91E-DC458D5CEE8B</title>
    <defs>
        <linearGradient x1="8.99570022%" y1="83.7186117%" x2="89.5061728%" y2="0%" id="linearGradient-1">
            <stop stop-color="#0AE0DE" offset="0%"></stop>
            <stop stop-color="#FE85C9" offset="56.4455599%"></stop>
            <stop stop-color="#FFD988" offset="100%"></stop>
        </linearGradient>
    </defs>
    <g id="Plateform" stroke="none" stroke-width="1" fill="none" fill-rule="evenodd">
        <g id="Iconset" transform="translate(-61.000000, -50.000000)" fill="url(#linearGradient-1)" fill-rule="nonzero">
            <g id="Logo" transform="translate(61.000000, 49.000000)">
                <g id="Combined-Shape-2" transform="translate(-0.000000, 1.800000)">
                    <path d="M19.396031,0.328234933 L35.74862,9.19457732 C35.9238385,9.31412194 36.0135691,9.51376161 35.998334,9.71244746 L35.9992798,9.72964211 L35.9992798,9.72964211 L35.999709,28.8310436 C36.0058617,29.4394325 35.8193312,30.0218375 35.4827935,30.5051476 C35.2258972,30.9827044 34.8334661,31.3870693 34.3402005,31.6611953 L18.1887304,40.431465 C18.1037892,40.4768954 18.0086925,40.5003576 17.9122123,40.4996874 L17.9043723,40.5 L17.905,40.4981566 L17.8280352,40.4924659 C17.6777032,40.4681573 17.498595,40.3845145 17.3502645,40.272617 L1.48968634,31.6805488 C0.560603759,31.165539 -0.010567785,30.1891329 0.000148183216,29.1344743 L0.000148183216,10.1028544 L0.00484418581,10.0481625 C0.00164006815,10.0237281 -6.48171294e-11,9.99893009 -6.48171294e-11,9.97389702 C-6.48171294e-11,9.80993816 0.0703563266,9.656064 0.189709893,9.5483769 C0.228388749,9.40067256 0.32733566,9.27165367 0.466384029,9.19457732 L16.818973,0.328234933 C17.6212922,-0.109411644 18.5937118,-0.109411644 19.396031,0.328234933 Z M34.112,11.25 L32.5220226,12.2919112 C32.5131937,12.3002782 32.5038219,12.3082284 32.4938892,12.3157296 C31.663214,12.9057658 30.555398,13.5340447 29.6706508,14.4887859 C29.5815418,14.5845761 29.4920263,14.6927533 29.4100535,14.809283 C29.2443978,15.1268766 29.1641206,15.4777435 29.2936253,15.7985071 C29.3447954,15.9263006 29.4100476,15.9847074 29.4990019,16.0853805 C29.5879562,16.1860536 29.6457351,16.2231972 29.7582151,16.2941256 C31.2776365,17.2571115 31.4802449,19.8649589 30.2711453,22.1998699 C30.1729788,22.3890994 30.0675463,22.5715513 29.9557475,22.7463775 C29.2280742,24.0096354 28.1735885,24.928791 27.090247,25.2217012 C26.8597766,25.2853717 26.6220871,25.3191041 26.3830514,25.3220904 C26.2953633,25.3322925 26.2061876,25.3370027 26.1168488,25.3373479 C25.6807099,25.3402697 25.2529833,25.2174869 24.8849537,24.9837214 C23.4597883,24.0826225 23.1674467,21.7159199 24.2044474,19.4781775 C24.7923788,18.0815147 24.1619171,17.7084225 23.9207158,17.5965984 C23.7412538,17.5133975 23.4587748,17.546431 22.4890668,17.9422045 C22.4708402,17.9592327 22.4529118,17.9698541 22.4337812,17.9775577 L18.654,20.1 L18.6544093,22.5274637 C18.6575758,22.905783 18.6254263,23.2835798 18.5583731,23.6560091 C18.4422749,24.2689601 18.2550754,24.7983211 17.9888541,25.1730078 C17.8146507,25.504571 17.597219,25.758019 17.3326834,25.9027125 C17.0054322,26.0796226 16.6289648,26.2056743 16.2060991,26.1742274 C15.5992451,26.1562597 14.8926264,25.8138466 14.0948869,24.8084711 L14.0720755,24.7801574 L13.9360218,24.5997586 C12.8915854,23.2318015 11.3998825,22.5967652 10.5468989,23.1606127 C10.3920613,23.2628463 10.2649187,23.3987469 10.1651649,23.5615586 C9.85412242,24.4408403 10.1051721,25.7953154 10.890378,26.9947941 C11.5700826,28.0337464 12.5519702,28.7948776 13.4527236,28.9789957 C13.7615297,29.0431082 14.2119065,29.066123 14.5927397,28.8146045 C14.6501129,28.777396 14.7041286,28.7353186 14.7541799,28.6888452 C15.1027252,28.3600629 15.5175023,28.1956717 15.9264841,28.2260841 C16.6638225,28.2755466 17.2245781,28.7649348 17.6071271,29.3111207 L17.617611,29.3261673 C17.8651283,29.683267 18.0367435,30.063059 18.1320054,30.3590597 C18.2147953,30.6056465 18.2810272,30.8522332 18.3422916,31.1095054 C18.5565944,32.0367799 18.6613399,32.9856877 18.6544093,33.9370338 L18.654,38.232 L33.2363619,30.1998786 C33.7865258,29.8887247 33.9848588,29.6703803 33.9742111,29.0417764 L34.112,11.25 Z M14.6169012,9.17144066 C13.1527012,9.24667502 11.8747309,9.94924055 11.4216696,10.8322295 C11.4129119,10.8962204 11.4089105,10.9608453 11.4094898,11.0257792 C11.4100038,11.0985742 11.4163676,11.171213 11.4285208,11.2430071 C11.5056432,11.6215436 11.4518395,12.0135027 11.277922,12.3564141 C11.2424709,12.5650001 11.1684856,12.7677102 11.0568489,12.9527331 C10.464864,13.8805091 9.19783713,14.1370594 8.21173848,14.0668711 C6.93249737,13.9765138 5.98792723,13.765949 5.18829976,13.3875777 C5.15846129,13.3774718 5.12957847,13.3647835 5.10198559,13.3496599 L1.58,11.415 L1.58026337,28.8918961 C1.56961672,29.5290364 1.75086732,29.9232273 2.30995588,30.2383086 L16.96,37.936 L16.960977,34.0832362 C16.9679298,33.234609 16.8555586,32.5408891 16.7201715,31.6995956 C16.6778981,31.4369092 16.6344915,31.197392 16.5812332,30.9682131 C16.5016256,30.6256489 16.3422226,30.2723631 16.1040372,30.0495188 C15.9788898,29.9550628 15.83553,29.8938709 15.673657,29.8831068 C15.5561418,29.8955373 15.4929647,29.9121001 15.4137562,29.999178 L15.2298563,30.1861135 C15.1983482,30.2159404 15.1650899,30.2439612 15.1280993,30.2684633 C14.5659563,30.6391654 13.754853,30.6976886 13.0022933,30.5398731 C11.7927337,30.2932863 10.4484672,29.3254883 9.59490397,28.0194003 C8.37068172,26.1506777 8.24156967,23.7506907 9.15506233,22.4475244 C9.34706435,22.0880317 9.60377299,21.7906126 9.9242206,21.5790903 C11.3200573,20.6560338 13.7722924,21.5339334 15.2302215,23.4441589 L15.3738799,23.5971231 C16.2417046,24.697522 16.4287424,24.5934756 16.7943313,24.3927311 C16.8476864,24.2615934 16.9031321,24.0630073 16.960977,23.7562208 C17.0146072,23.458301 17.049343,23.1566404 17.0461126,22.8540156 L17.1110394,19.8559398 L14.3253873,18.3467423 C13.81227,18.0765275 13.3537785,17.7149826 12.9728605,17.2802032 C12.5315183,16.7638757 12.3263186,16.2467414 12.3629614,15.7433221 C12.3658124,15.7027491 12.3692207,15.6618258 12.3733203,15.6206402 C12.3728044,15.6067195 12.373622,15.5930827 12.3746139,15.5794557 C12.4042826,15.1572763 12.4933404,14.697769 12.787918,14.29695 C13.0760411,13.717977 13.6888065,13.2085502 15.0038741,13.016898 C16.2747992,12.8978343 17.3644344,12.3336023 17.8977315,11.6110803 C17.9504734,11.4571863 17.9773148,11.2996851 17.9758251,11.1407461 C17.9717537,10.6292592 17.6786113,10.2492744 17.4335116,10.0209608 C16.8016267,9.43121795 15.749571,9.11416057 14.6169012,9.17144066 Z M17.225649,2.1970898 L3.228,10.012 L5.96485233,11.4847914 C6.73662465,11.9167081 7.03443802,12.1360347 8.27145564,12.2221061 C8.71330675,12.2544268 9.25051922,12.3535971 9.61696606,12.0323117 L9.64922486,12.0010442 C9.65282676,11.9754344 9.65416392,11.9491555 9.6537691,11.9225662 C9.65046591,11.9119073 9.64806051,11.9018547 9.64565459,11.8919404 C9.62422185,11.7631083 9.53184217,11.542171 9.53050843,11.4116074 L9.53034918,11.3638766 C9.51149005,11.2953348 9.4969402,11.2297702 9.49641257,11.1781231 C9.49225566,10.7105029 9.65545011,10.2566642 9.94258943,9.83712312 C10.683163,8.45123141 12.7865459,7.37052782 14.8342001,7.26583979 C16.2921433,7.19370375 17.8828302,7.6839532 18.7491563,8.49220479 C19.339946,9.04388159 19.7174361,9.9337558 19.7174361,10.6633135 C19.722509,11.2144532 19.5330261,11.7607285 19.1968317,12.259401 C19.1716042,12.3048943 19.1455829,12.349998 19.118384,12.3947622 C18.4739793,13.659857 16.8747697,14.6977691 15.0373972,14.8691442 C14.4488751,14.9553455 14.1355018,15.0574936 13.9665507,15.1842121 C13.9629034,15.2468108 13.9609206,15.313143 13.9559428,15.3836265 C13.9410489,15.586919 14.0257329,15.7370822 14.272309,16.0215278 C14.5682862,16.3559178 14.9367615,16.5599691 15.3338248,16.7674764 L18.2072913,18.44 L22.1680102,16.3414234 L22.2252372,16.3064554 C22.2339199,16.2965043 22.2439032,16.2884055 22.2552616,16.2823548 C23.1383582,15.9195861 24.4773714,15.1883962 25.276285,15.7985071 C25.9844129,16.3360643 26.7712865,17.5833773 25.9286308,19.5852007 C25.1338439,21.300107 24.9976654,22.8948577 25.9286308,23.4843568 C26.2298741,23.6748104 26.5618118,23.5948364 26.9686965,23.4843568 C27.2551902,23.4070438 27.5249844,23.2976099 27.7788982,23.1430162 C28.0876776,22.8631254 28.3696685,22.4902541 28.6265885,21.9940244 C29.5198546,20.2721226 29.5970003,18.4882274 28.6265885,17.8734362 C28.5714316,17.8385975 28.4494594,17.732944 28.3889928,17.7084225 C27.9875425,17.5552934 27.6831697,17.1229944 27.5136025,16.7286149 C27.0531644,15.5931168 27.8733346,14.3814129 28.3889928,13.8266409 C28.4914055,13.7163524 28.5947735,13.6073507 28.6989546,13.5001419 C28.7473577,13.4436132 28.7935489,13.3915483 28.8375577,13.3441923 C29.812551,12.2940202 30.872734,11.3586224 31.8993674,10.9608799 L33.328,10.205 L18.4333471,2.1970898 C17.9829893,1.95218824 17.6760068,1.95218824 17.225649,2.1970898 Z" id="Combined-Shape-Copy"></path>
                </g>
            </g>
        </g>
    </g>
</svg>