<svg width="64" height="24" viewBox="0 0 64 24" fill="none" xmlns="http://www.w3.org/2000/svg">
<g clip-path="url(#clip0_834_242)">
<path d="M34.7599 15.6699H36.7201V6.52539H33.9786L31.758 12.2288L29.5374 6.52539H26.8096V15.6699H28.756V9.08918L31.333 15.6699H32.1829L34.7599 9.08918V15.6699Z" fill="#8C92AE"/>
<path d="M42.4699 15.6697H44.2107V11.3922C44.2107 9.48653 42.8263 8.8833 41.3185 8.8833C40.2767 8.8833 39.2349 9.21233 38.4262 9.9252L39.0842 11.0906C39.6462 10.5696 40.3041 10.3091 41.0169 10.3091C41.8942 10.3091 42.4699 10.7478 42.4699 11.4197V12.3382C42.0313 11.8035 41.25 11.5293 40.3727 11.5293C39.3172 11.5293 38.0698 12.0914 38.0698 13.6406C38.0698 15.1213 39.3172 15.8342 40.3727 15.8342C41.2362 15.8342 42.0176 15.5189 42.4699 14.9842V15.6697ZM42.4699 14.0794C42.1821 14.4632 41.6338 14.6551 41.0718 14.6551C40.3864 14.6551 39.8244 14.2987 39.8244 13.6817C39.8244 13.0511 40.3864 12.6809 41.0718 12.6809C41.6338 12.6809 42.1821 12.8728 42.4699 13.2568V14.0794Z" fill="#8C92AE"/>
<path d="M45.8001 17.3697C46.6225 18.0964 47.5135 18.3568 48.6513 18.3568C50.2824 18.3568 52.2289 17.7399 52.2289 15.2173V9.04778H50.4744V9.89783C49.9398 9.22605 49.227 8.8833 48.4319 8.8833C46.7596 8.8833 45.5122 10.0898 45.5122 12.2559C45.5122 14.4632 46.7733 15.6286 48.4319 15.6286C49.2407 15.6286 49.9535 15.2446 50.4744 14.5866V15.2584C50.4744 16.5608 49.4874 16.931 48.6513 16.931C47.8151 16.931 47.116 16.6979 46.5814 16.1084L45.8001 17.3697ZM50.4744 13.3253C50.1865 13.7503 49.5559 14.0794 48.9802 14.0794C47.9933 14.0794 47.3079 13.3939 47.3079 12.2559C47.3079 11.118 47.9933 10.4325 48.9802 10.4325C49.5559 10.4325 50.1865 10.7478 50.4744 11.1865V13.3253Z" fill="#8C92AE"/>
<path d="M54.8191 8.07418C55.3949 8.07418 55.8609 7.60798 55.8609 7.03219C55.8609 6.45637 55.3949 5.99023 54.8191 5.99023C54.2571 5.99023 53.7773 6.45637 53.7773 7.03219C53.7773 7.60798 54.2571 8.07418 54.8191 8.07418ZM53.9555 15.6694H55.6964V9.04753H53.9555V15.6694Z" fill="#8C92AE"/>
<path d="M56.9976 12.3519C56.9976 14.3947 58.4643 15.8342 60.5067 15.8342C61.8637 15.8342 62.6862 15.2447 63.1248 14.6278L61.9871 13.5721C61.6719 14.0108 61.1921 14.285 60.5889 14.285C59.5335 14.285 58.7933 13.5035 58.7933 12.3519C58.7933 11.2003 59.5335 10.4325 60.5889 10.4325C61.1921 10.4325 61.6719 10.693 61.9871 11.1455L63.1248 10.0898C62.6862 9.4728 61.8637 8.8833 60.5067 8.8833C58.4643 8.8833 56.9976 10.3229 56.9976 12.3519Z" fill="#8C92AE"/>
<path fill-rule="evenodd" clip-rule="evenodd" d="M10.4001 0C11.3942 1.21772 12.4906 2.34857 13.6762 3.37944C12.8863 5.94206 12.4611 8.66468 12.4611 11.4866C12.4611 14.3085 12.8863 17.0312 13.6763 19.5938C12.4907 20.6246 11.3943 21.7555 10.4002 22.9732C9.40623 21.7556 8.30997 20.6248 7.12451 19.5941C7.91451 17.0314 8.33982 14.3087 8.33982 11.4866C8.33982 8.66453 7.91451 5.94178 7.1245 3.37903C8.30995 2.34827 9.40623 1.21755 10.4001 0ZM4.858 17.822C3.60326 16.9424 2.27163 16.165 0.875211 15.502C1.26261 14.232 1.471 12.8838 1.471 11.487C1.471 10.0899 1.26253 8.74148 0.875 7.4712C2.2715 6.80815 3.60319 6.03076 4.858 5.15113C5.33784 7.18499 5.59174 9.30615 5.59174 11.4866C5.59174 13.667 5.33784 15.7882 4.858 17.822ZM15.2085 11.4866C15.2085 13.667 15.4624 15.7882 15.9423 17.8221C17.1972 16.9424 18.5291 16.1648 19.9258 15.5018C19.5385 14.2318 19.3302 12.8837 19.3302 11.4869C19.3302 10.0901 19.5386 8.74178 19.926 7.4716C18.5292 6.80846 17.1973 6.03093 15.9423 5.15113C15.4624 7.18499 15.2085 9.30615 15.2085 11.4866Z" fill="#8C92AE"/>
</g>
<defs>
<clipPath id="clip0_834_242">
<rect width="62.25" height="23.25" fill="white" transform="translate(0.875)"/>
</clipPath>
</defs>
</svg>
