<svg width="18" height="16" viewBox="0 0 18 16" fill="none" xmlns="http://www.w3.org/2000/svg">
<path d="M5.66087 15.3143C12.4538 15.3143 16.1683 9.68671 16.1683 4.80687C16.1683 4.64703 16.165 4.4879 16.1579 4.3295C16.8789 3.80822 17.5057 3.15769 18 2.41716C17.3383 2.71128 16.6262 2.90929 15.8792 2.99857C16.6417 2.54136 17.2271 1.81812 17.5032 0.955906C16.7897 1.37891 15.9995 1.68636 15.1581 1.85232C14.4842 1.13447 13.5248 0.685547 12.4624 0.685547C10.423 0.685547 8.76915 2.3394 8.76915 4.3781C8.76915 4.6679 8.80155 4.94979 8.86491 5.22015C5.79552 5.06571 3.07389 3.59618 1.25264 1.36163C0.935473 1.9074 0.752593 2.54136 0.752593 3.21781C0.752593 4.49906 1.40456 5.63019 2.39601 6.29188C1.79012 6.27316 1.22096 6.10684 0.723431 5.83C0.722888 5.84549 0.722889 5.8606 0.722889 5.87716C0.722889 7.66565 1.99586 9.15895 3.68572 9.49735C3.37539 9.58195 3.04887 9.62731 2.71191 9.62731C2.47431 9.62731 2.24282 9.60393 2.01782 9.56071C2.48798 11.0281 3.85132 12.0959 5.46774 12.1257C4.20376 13.1165 2.61147 13.7065 0.88093 13.7065C0.583207 13.7065 0.289083 13.6896 0 13.6554C1.63442 14.703 3.5752 15.3143 5.66105 15.3143" fill="#1DA1F2"/>
</svg>
