<svg width="57" height="50" viewBox="0 0 57 50" fill="none" xmlns="http://www.w3.org/2000/svg">
<path fill-rule="evenodd" clip-rule="evenodd" d="M0.155074 35.9078C-0.0516913 35.4684 -0.0516913 34.9515 0.155074 34.5122L6.35804 22.1062C6.61649 21.5893 7.15925 21.2533 7.7537 21.2533H23.2611C23.8556 21.2533 24.3983 21.5893 24.6568 22.1062L30.8597 34.5122C31.0665 34.9515 31.0665 35.4684 30.8597 35.9078L24.6568 48.3137C24.3983 48.8307 23.8556 49.1667 23.2611 49.1667H7.7537C7.15925 49.1667 6.61649 48.8307 6.35804 48.3137L0.155074 35.9078ZM26.8742 35.21L21.8343 45.2898H9.18051L4.14061 35.21L9.18051 25.1302H21.8343L26.8742 35.21Z" fill="#0A0A32"/>
<path fill-rule="evenodd" clip-rule="evenodd" d="M26.003 15.488C25.7962 15.0486 25.7962 14.5317 26.003 14.0923L32.206 1.68638C32.4644 1.16947 33.0072 0.833473 33.6016 0.833473H49.109C49.7035 0.833473 50.2462 1.16947 50.5047 1.68638L56.7077 14.0923C56.9144 14.5317 56.9144 15.0486 56.7077 15.488L50.5047 27.8939C50.2462 28.4108 49.7035 28.7468 49.109 28.7468H33.6016C33.0072 28.7468 32.4644 28.4108 32.206 27.8939L26.003 15.488ZM52.7221 14.7901L47.6822 24.8699H35.0284L29.9885 14.7901L35.0284 4.71032H47.6822L52.7221 14.7901Z" fill="#0A0A32"/>
<path fill-rule="evenodd" clip-rule="evenodd" d="M27.8883 37.3816H13.5012V33.5047H27.8883V37.3816Z" fill="#0A0A32"/>
<path fill-rule="evenodd" clip-rule="evenodd" d="M11.758 36.2892L6.00751 24.4119L9.4969 22.7225L15.2474 34.5998L11.758 36.2892Z" fill="#0A0A32"/>
<path fill-rule="evenodd" clip-rule="evenodd" d="M15.2492 36.288L9.78076 47.6713L6.28622 45.9926L11.7546 34.6092L15.2492 36.288Z" fill="#0A0A32"/>
<path fill-rule="evenodd" clip-rule="evenodd" d="M27.8883 37.3816H13.5012V33.5047H27.8883V37.3816Z" fill="#0A0A32"/>
<path fill-rule="evenodd" clip-rule="evenodd" d="M11.758 36.2892L6.00751 24.4119L9.4969 22.7225L15.2474 34.5998L11.758 36.2892Z" fill="#0A0A32"/>
<path fill-rule="evenodd" clip-rule="evenodd" d="M15.2492 36.288L9.78076 47.6713L6.28622 45.9926L11.7546 34.6092L15.2492 36.288Z" fill="#0A0A32"/>
<path fill-rule="evenodd" clip-rule="evenodd" d="M53.7368 16.9609H39.3496V13.084H53.7368V16.9609Z" fill="#0A0A32"/>
<path fill-rule="evenodd" clip-rule="evenodd" d="M37.6065 15.8686L31.856 3.99125L35.3453 2.30183L41.0959 14.1791L37.6065 15.8686Z" fill="#0A0A32"/>
<path fill-rule="evenodd" clip-rule="evenodd" d="M41.0976 15.8673L35.6292 27.2506L32.1347 25.5719L37.6031 14.1886L41.0976 15.8673Z" fill="#0A0A32"/>
<path fill-rule="evenodd" clip-rule="evenodd" d="M40.2297 40.776C44.8565 37.3428 45.9236 32.4789 46.1433 31.2928L42.3313 30.5868C42.1701 31.457 41.355 35.1141 37.9185 37.6634L37.9156 37.6656C35.0718 39.7834 32.0404 39.9079 31.023 39.9057L31.0147 43.7825C32.3467 43.7854 36.391 43.6341 40.2297 40.776Z" fill="#0A0A32"/>
<path fill-rule="evenodd" clip-rule="evenodd" d="M18.1791 8.23591C13.9013 12.0953 13.3036 17.0389 13.1982 18.2405L17.0602 18.5793C17.1375 17.6976 17.5996 13.9795 20.7771 11.1135L20.7797 11.1111C23.4083 8.7314 26.414 8.31805 27.4269 8.22309L27.065 4.36317C25.7388 4.4875 21.7274 5.02436 18.1791 8.23591Z" fill="#0A0A32"/>
</svg>
