<svg width="40" height="40" viewBox="0 0 40 40" fill="none" xmlns="http://www.w3.org/2000/svg">
<rect width="40" height="40" rx="8" fill="#FF0420"/>
<path d="M20 40C31.0457 40 40 31.0457 40 20C40 8.95431 31.0457 0 20 0C8.95431 0 0 8.95431 0 20C0 31.0457 8.95431 40 20 40Z" fill="#FF0420"/>
<path d="M11.5266 27.7377C9.90274 27.7377 8.5723 27.3556 7.5352 26.5914C6.51173 25.8136 6 24.7083 6 23.2754C6 22.9752 6.03414 22.6067 6.10232 22.1701C6.27981 21.1876 6.53224 20.0072 6.85972 18.6289C7.78763 14.8763 10.1825 13 14.0444 13C15.0951 13 16.0367 13.1774 16.8691 13.5321C17.7016 13.8733 18.3565 14.3919 18.8341 15.0878C19.3117 15.7701 19.5506 16.5889 19.5506 17.5441C19.5506 17.8306 19.5165 18.1923 19.4482 18.6289C19.2435 19.8434 18.9978 21.0239 18.7113 22.1701C18.2337 24.0396 17.4081 25.4383 16.2345 26.3662C15.061 27.2805 13.4917 27.7377 11.5266 27.7377ZM11.8132 24.7901C12.5775 24.7901 13.2256 24.565 13.7578 24.1147C14.3037 23.6643 14.6926 22.9752 14.9245 22.0473C15.2383 20.7646 15.4772 19.6455 15.641 18.6904C15.6955 18.4038 15.7228 18.1105 15.7228 17.8101C15.7228 16.5684 15.0746 15.9475 13.7783 15.9475C13.014 15.9475 12.3591 16.1726 11.8132 16.6229C11.2811 17.0734 10.8989 17.7625 10.667 18.6904C10.4213 19.6046 10.1757 20.7237 9.93012 22.0473C9.87546 22.3202 9.84819 22.6067 9.84819 22.9069C9.84819 24.1624 10.5033 24.7901 11.8132 24.7901Z" fill="white"/>
<path d="M20.4904 27.5331C20.3403 27.5331 20.2242 27.4853 20.1424 27.3897C20.0741 27.2805 20.0537 27.1578 20.081 27.0213L22.9057 13.7164C22.933 13.5663 23.0081 13.4434 23.1309 13.3479C23.2537 13.2524 23.3833 13.2047 23.5198 13.2047H28.9646C30.4793 13.2047 31.6938 13.5185 32.608 14.1462C33.536 14.774 34 15.6814 34 16.8686C34 17.2097 33.9591 17.5646 33.8772 17.933C33.536 19.5023 32.8469 20.6622 31.8098 21.4128C30.7864 22.1633 29.3808 22.5386 27.5931 22.5386H24.8298L23.8883 27.0213C23.8609 27.1714 23.7859 27.2941 23.6631 27.3897C23.5403 27.4853 23.4106 27.5331 23.2742 27.5331H20.4904ZM27.7365 19.7138C28.3095 19.7138 28.8076 19.5569 29.2307 19.243C29.6673 18.9292 29.9539 18.4788 30.0904 17.8921C30.1313 17.66 30.1518 17.4554 30.1518 17.278C30.1518 16.8822 30.0358 16.582 29.8038 16.3774C29.5718 16.159 29.1761 16.0499 28.6166 16.0499H26.1603L25.3825 19.7138H27.7365Z" fill="white"/>
</svg>
