<svg width="12" height="18" viewBox="0 0 12 18" fill="none" xmlns="http://www.w3.org/2000/svg">
<path d="M1.44755 18C1.05594 18 0.716783 17.8621 0.43007 17.5863C0.143357 17.3105 0 16.9843 0 16.6076V1.39238C0 1.0157 0.143357 0.689462 0.43007 0.413677C0.716783 0.137892 1.05594 0 1.44755 0H10.5524C10.9441 0 11.2832 0.137892 11.5699 0.413677C11.8566 0.689462 12 1.0157 12 1.39238V16.6076C12 16.9843 11.8566 17.3105 11.5699 17.5863C11.2832 17.8621 10.9441 18 10.5524 18H1.44755ZM6 16.3049C6.18182 16.3049 6.33217 16.2478 6.45105 16.1334C6.56993 16.0191 6.62937 15.8744 6.62937 15.6996C6.62937 15.5247 6.56993 15.38 6.45105 15.2657C6.33217 15.1513 6.18182 15.0942 6 15.0942C5.81818 15.0942 5.66783 15.1513 5.54895 15.2657C5.43007 15.38 5.37063 15.5247 5.37063 15.6996C5.37063 15.8744 5.43007 16.0191 5.54895 16.1334C5.66783 16.2478 5.81818 16.3049 6 16.3049ZM1.44755 13.5807H10.5524V3.20852H1.44755V13.5807Z" fill="#0A0A32"/>
</svg>
