<?xml version="1.0" encoding="UTF-8"?>
<svg width="50px" height="50px" viewBox="0 0 50 50" version="1.1" xmlns="http://www.w3.org/2000/svg" xmlns:xlink="http://www.w3.org/1999/xlink">
    <title>wallet/metamask</title>
    <g id="wallet/metamask" stroke="none" stroke-width="1" fill="none" fill-rule="evenodd" stroke-linecap="round" stroke-linejoin="round">
        <g id="Metamask" fill-rule="nonzero">
            <g id="MetaMask_Fox" transform="translate(5.000000, 7.000000)">
                <polygon id="Path" stroke="#E2761B" fill="#E2761B" points="37.8310599 0 22.6484792 11.9291705 25.4561122 4.89112135"></polygon>
                <g id="Group" transform="translate(1.098510, 0.078481)" fill="#E4761B" stroke="#E4761B">
                    <polygon id="Path" points="1.62670507 0 16.9177328 11.7094227 14.2065577 4.75597194"></polygon>
                    <polygon id="Path" points="31.6665255 26.8877226 27.5610317 33.260411 36.3452391 35.7090303 38.8705051 27.0289891"></polygon>
                    <polygon id="Path" points="0 27.0289891 2.50977354 35.7090303 11.2939809 33.260411 7.18848719 26.8877226"></polygon>
                    <polygon id="Path" points="10.7982232 16.1200765 8.35041938 19.8714867 17.0726571 20.2638937 16.7628085 10.767646"></polygon>
                    <polygon id="Path" points="28.041297 16.1200765 21.9992496 10.6577721 21.797848 20.2638937 30.5045933 19.8714867"></polygon>
                    <polygon id="Path" points="11.2939809 33.260411 16.530422 30.6705253 12.0066327 27.0917742"></polygon>
                    <polygon id="Path" points="22.3090982 30.6705253 27.5610317 33.260411 26.8328875 27.0917742"></polygon>
                </g>
                <g id="Group" transform="translate(11.926549, 30.513044)" fill="#D7C1B3" stroke="#D7C1B3">
                    <polygon id="Path" points="16.113588 2.71117512 10.911201 0 11.3255504 3.63133153 11.2795116 5.15944842"></polygon>
                    <polygon id="Path" points="0 2.71117512 4.8340764 5.15944842 4.80338385 3.63133153 5.18704071 0"></polygon>
                </g>
                <polygon id="Path" stroke="#233447" fill="#233447" points="17.226129 23.8583411 12.8882488 22.8237317 15.949377 21.689401"></polygon>
                <polygon id="Path" stroke="#233447" fill="#233447" points="23.7329493 23.8583411 25.0051897 21.689401 28.0708295 22.8237317"></polygon>
                <g id="Group" transform="translate(7.512960, 19.535593)" fill="#CD6116" stroke="#CD6116">
                    <polygon id="Path" points="4.15713519 12.9077156 4.91012572 6.76406668 0 6.90025595"></polygon>
                    <polygon id="Path" points="19.8758124 6.76406668 20.6288029 12.9077156 24.7859381 6.90025595"></polygon>
                    <polygon id="Path" points="23.6093904 0 14.7931264 0.378303506 15.6088661 4.75149203 16.9109122 2.11849963 20.0483727 3.49552439"></polygon>
                    <polygon id="Path" points="4.75325269 3.49552439 7.89071321 2.11849963 9.17707203 4.75149203 10.0084991 0.378303506 1.1765477 0"></polygon>
                </g>
                <g id="Group" transform="translate(8.676890, 19.535249)" fill="#E4751F" stroke="#E4751F">
                    <polygon id="Path" points="0 0 3.73238442 6.80258486 3.60586292 3.41608066"></polygon>
                    <polygon id="Path" points="19.0256714 3.41608066 18.8675196 6.80258486 22.6157192 0"></polygon>
                    <polygon id="Path" points="8.90395097 0.369705699 8.065746 4.64350358 9.10954842 9.68628931 9.34677624 3.04637496"></polygon>
                    <polygon id="Path" points="13.7275834 0.369705699 13.3005733 3.03158673 13.4903556 9.68628931 14.5499732 4.64350358"></polygon>
                </g>
                <polygon id="Path" stroke="#F6851B" fill="#F6851B" points="23.686472 24.1525956 22.6484792 29.8169938 23.3921158 30.3651614 27.9159052 26.5778218 28.0708295 22.773871"></polygon>
                <polygon id="Path" stroke="#F6851B" fill="#F6851B" points="12.8882488 22.773871 13.0129005 26.5778218 17.5626886 30.3651614 18.310599 29.8169938 17.2822222 24.1525956"></polygon>
                <polygon id="Path" stroke="#C0AD9E" fill="#C0AD9E" points="23.1907142 35.1722409 23.2371915 33.525617 22.8498808 33.136093 17.0092349 33.136093 16.6529091 33.525617 16.6838939 35.1722409 11.8037787 32.5341015 13.5079459 34.1276085 16.9627577 36.8719817 22.8963581 36.8719817 26.3666622 34.1276085 28.0708295 32.5341015"></polygon>
                <polygon id="Path" stroke="#161616" fill="#161616" points="23.3195748 29.8442742 22.5846868 29.2806913 18.343771 29.2806913 17.6088831 29.8442742 17.226129 33.6185715 17.5782628 33.2428496 23.3501951 33.2428496 23.7329493 33.6185715"></polygon>
                <g id="Group" transform="translate(0.000000, 0.077462)" fill="#763D16" stroke="#763D16">
                    <polygon id="Path" points="38.6363636 12.1925418 39.968652 5.8716307 37.9780564 0 22.8996865 11.0615945 28.6990596 15.9107249 36.8965517 18.2810666 38.7147335 16.1895886 37.9310345 15.6318611 39.184953 14.5009138 38.2131661 13.7572772 39.4670846 12.812239"></polygon>
                    <polygon id="Path" points="0 5.8716307 1.3322884 12.1925418 0.485893417 12.812239 1.73981191 13.7572772 0.78369906 14.5009138 2.03761755 15.6318611 1.2539185 16.1895886 3.05642633 18.2810666 11.2539185 15.9107249 17.0532915 11.0615945 1.97492163 0"></polygon>
                </g>
                <polygon id="Path" stroke="#F6851B" fill="#F6851B" points="37.297897 18.6407835 29.2683524 16.2670507 31.7094568 19.9750385 28.0708295 27.1117512 32.8609211 27.0496929 40 27.0496929"></polygon>
                <polygon id="Path" stroke="#F6851B" fill="#F6851B" points="11.6876355 16.2670507 3.63736939 18.6407835 0.9590782 27.0496929 8.10118805 27.0496929 12.8882488 27.1117512 9.25562391 19.9750385"></polygon>
                <polygon id="Path" stroke="#F6851B" fill="#F6851B" points="22.9296381 20.6531892 23.4598235 11.7582559 25.9018894 5.42235025 15.0571889 5.42235025 17.4671223 11.7582559 18.0294401 20.6531892 18.2222348 23.4588701 18.238301 30.3651614 22.6886448 30.3651614 22.7207772 23.4588701"></polygon>
            </g>
        </g>
    </g>
</svg>