<svg width="18" height="14" viewBox="0 0 18 14" fill="none" xmlns="http://www.w3.org/2000/svg">
<path d="M1.98825 14C1.43831 14 0.969448 13.8143 0.581669 13.4428C0.19389 13.0714 0 12.6223 0 12.0955V1.92475C0 1.39797 0.19389 0.94549 0.581669 0.567294C0.969448 0.189098 1.43831 0 1.98825 0H15.9906C16.5405 0 17.0129 0.189098 17.4078 0.567294C17.8026 0.94549 18 1.39797 18 1.92475V12.0955C18 12.6223 17.8026 13.0714 17.4078 13.4428C17.0129 13.8143 16.5405 14 15.9906 14H1.98825ZM8.98942 7.82055C9.08813 7.82055 9.17979 7.80704 9.26439 7.78003C9.349 7.75302 9.44066 7.71249 9.53937 7.65847L15.6945 3.70767C15.765 3.66715 15.832 3.59961 15.8954 3.50507C15.9589 3.41052 15.9906 3.30246 15.9906 3.1809C15.9906 2.93777 15.8743 2.74192 15.6416 2.59334C15.4089 2.44477 15.1727 2.45152 14.933 2.6136L8.98942 6.34153L3.06698 2.6136C2.82726 2.46503 2.58754 2.45152 2.34783 2.57308C2.10811 2.69465 1.98825 2.8905 1.98825 3.16064C1.98825 3.2822 2.0235 3.39026 2.09401 3.4848C2.16451 3.57935 2.23502 3.65364 2.30552 3.70767L8.43948 7.65847C8.53819 7.71249 8.62985 7.75302 8.71445 7.78003C8.79906 7.80704 8.89072 7.82055 8.98942 7.82055Z" fill="#0A0A32"/>
</svg>
