<?xml version="1.0" encoding="UTF-8"?>
<svg width="40px" height="40px" viewBox="0 0 40 40" version="1.1" xmlns="http://www.w3.org/2000/svg" xmlns:xlink="http://www.w3.org/1999/xlink">
    <title>BEA6A535-BC89-47AC-B061-C43D986ECDA4</title>
    <defs>
        <rect id="path-1" x="0" y="0" width="600" height="795" rx="2"></rect>
        <filter x="-5.2%" y="-3.6%" width="110.3%" height="107.8%" filterUnits="objectBoundingBox" id="filter-2">
            <feOffset dx="0" dy="2" in="SourceAlpha" result="shadowOffsetOuter1"></feOffset>
            <feGaussianBlur stdDeviation="10" in="shadowOffsetOuter1" result="shadowBlurOuter1"></feGaussianBlur>
            <feColorMatrix values="0 0 0 0 0.603921569   0 0 0 0 0.650980392   0 0 0 0 0.788235294  0 0 0 0.2 0" type="matrix" in="shadowBlurOuter1"></feColorMatrix>
        </filter>
        <path d="M2,0 L258,0 C259.104569,-2.02906125e-16 260,0.8954305 260,2 L260,58 C260,59.1045695 259.104569,60 258,60 L2,60 C0.8954305,60 1.3527075e-16,59.1045695 0,58 L0,39.9241704 L0,39.9241704 L0,2 C-1.3527075e-16,0.8954305 0.8954305,2.02906125e-16 2,0 Z" id="path-3"></path>
        <filter x="-11.9%" y="-48.3%" width="123.8%" height="203.3%" filterUnits="objectBoundingBox" id="filter-4">
            <feOffset dx="0" dy="2" in="SourceAlpha" result="shadowOffsetOuter1"></feOffset>
            <feGaussianBlur stdDeviation="10" in="shadowOffsetOuter1" result="shadowBlurOuter1"></feGaussianBlur>
            <feComposite in="shadowBlurOuter1" in2="SourceAlpha" operator="out" result="shadowBlurOuter1"></feComposite>
            <feColorMatrix values="0 0 0 0 0.603921569   0 0 0 0 0.650980392   0 0 0 0 0.788235294  0 0 0 0.2 0" type="matrix" in="shadowBlurOuter1"></feColorMatrix>
        </filter>
        <path d="M9,0 L31,0 C35.9705627,-9.13077564e-16 40,4.02943725 40,9 L40,31 C40,35.9705627 35.9705627,40 31,40 L9,40 C4.02943725,40 6.08718376e-16,35.9705627 0,31 L0,9 C-6.08718376e-16,4.02943725 4.02943725,9.13077564e-16 9,0 Z" id="path-5"></path>
    </defs>
    <g id="Connexion" stroke="none" stroke-width="1" fill="none" fill-rule="evenodd">
        <g id="1-2-Portfolio---Connecti-wallet-step2" transform="translate(-739.000000, -348.000000)">
            <rect fill="#F9FAFC" x="0" y="0" width="1440" height="1024"></rect>
            <g id="fond" fill="#000000" fill-opacity="0.51" opacity="0.695481073">
                <g id="Group-7">
                    <rect id="Rectangle" x="0" y="0" width="1440" height="1024"></rect>
                </g>
            </g>
            <g id="Rectangle-Copy-16" transform="translate(420.000000, 114.000000)">
                <use fill="black" fill-opacity="1" filter="url(#filter-2)" xlink:href="#path-1"></use>
                <use fill="#FFFFFF" fill-rule="evenodd" xlink:href="#path-1"></use>
            </g>
            <g id="Network-unselect-Copy-3" transform="translate(727.000000, 338.000000)">
                <g id="Rectangle-Copy-4">
                    <use fill="black" fill-opacity="1" filter="url(#filter-4)" xlink:href="#path-3"></use>
                    <path stroke="#EDEDF2" stroke-width="1" d="M258,0.5 C258.414214,0.5 258.789214,0.667893219 259.06066,0.939339828 C259.332107,1.21078644 259.5,1.58578644 259.5,2 L259.5,2 L259.5,58 C259.5,58.4142136 259.332107,58.7892136 259.06066,59.0606602 C258.789214,59.3321068 258.414214,59.5 258,59.5 L258,59.5 L2,59.5 C1.58578644,59.5 1.21078644,59.3321068 0.939339828,59.0606602 C0.667893219,58.7892136 0.5,58.4142136 0.5,58 L0.5,58 L0.5,2 C0.5,1.58578644 0.667893219,1.21078644 0.939339828,0.939339828 C1.21078644,0.667893219 1.58578644,0.5 2,0.5 L2,0.5 Z" stroke-linejoin="square" fill="#FFFFFF" fill-rule="evenodd"></path>
                </g>
                <g id="Group-7" transform="translate(12.000000, 10.000000)">
                    <g id="Network/Ethereum" transform="translate(0.139531, 0.000000)">
                        <mask id="mask-6" fill="white">
                            <use xlink:href="#path-5"></use>
                        </mask>
                        <use id="Mask-2" fill="#E84142" xlink:href="#path-5"></use>
                        <path d="M26.6853337,22.680315 C27.3782471,21.4834646 28.4963574,21.4834646 29.1892708,22.680315 L33.5042314,30.2551181 C34.1971448,31.4519685 33.6302156,32.4283465 32.2443889,32.4283465 L23.5514755,32.4283465 C22.1813967,32.4283465 21.6144676,31.4519685 22.291633,30.2551181 L26.6853337,22.680315 Z M18.338877,8.0976378 C19.0317904,6.9007874 20.1341526,6.9007874 20.827066,8.0976378 L21.7876959,9.82992126 L24.0554125,13.8141732 C24.6065936,14.9480315 24.6065936,16.2866142 24.0554125,17.4204724 L16.4491133,30.6015748 C15.7561999,31.6724409 14.6065936,32.3496063 13.331003,32.4283465 L7.0160424,32.4283465 C5.63021563,32.4283465 5.0632865,31.4677165 5.75619988,30.2551181 L18.338877,8.0976378 Z" id="Shape" fill="#FFFFFF" fill-rule="nonzero" mask="url(#mask-6)"></path>
                    </g>
                </g>
            </g>
        </g>
    </g>
</svg>