<svg width="40" height="40" viewBox="0 0 40 40" fill="none" xmlns="http://www.w3.org/2000/svg">
<rect width="40" height="40" rx="8" fill="#2D374B"/>
<path d="M23.1548 18.8295L25.2111 15.3402L30.7537 23.9729L30.7563 25.6296L30.7382 14.2293C30.7251 13.9505 30.5771 13.6955 30.3411 13.5451L20.3623 7.80544C20.129 7.69069 19.8329 7.69207 19.5999 7.80906C19.5684 7.82491 19.539 7.84196 19.5107 7.86074L19.4759 7.88262L9.78988 13.4955L9.75232 13.5127C9.70391 13.5348 9.65515 13.5632 9.60915 13.596C9.42548 13.7276 9.3035 13.9224 9.26405 14.1407C9.25819 14.1738 9.25371 14.2076 9.25182 14.2417L9.26698 23.5318L14.4297 15.5301C15.0795 14.4691 16.4958 14.1271 17.8105 14.1459L19.3534 14.1866L10.2621 28.7663L11.3338 29.3833L20.5339 14.2014L24.6005 14.1866L15.4241 29.7517L19.2481 31.9513L19.705 32.2139C19.8983 32.2924 20.1261 32.2964 20.321 32.2259L30.44 26.3618L28.5053 27.4829L23.1548 18.8295ZM23.9393 30.1291L20.077 24.0671L22.4348 20.0662L27.5072 28.0613L23.9393 30.1291Z" fill="#2D374B"/>
<path d="M20.0768 24.0673L23.9393 30.1292L27.5071 28.0615L22.4346 20.0663L20.0768 24.0673Z" fill="#28A0F0"/>
<path d="M30.7563 25.6298L30.7537 23.973L25.2111 15.3404L23.1548 18.8296L28.5055 27.4831L30.4401 26.362C30.6298 26.208 30.7447 25.9818 30.7568 25.7378L30.7563 25.6298Z" fill="#28A0F0"/>
<path d="M7.53011 27.1921L10.2621 28.7663L19.3534 14.1865L17.8105 14.1459C16.4959 14.1273 15.0797 14.4691 14.4297 15.5301L9.26698 23.5318L7.53011 26.2004V27.1921V27.1921Z" fill="white"/>
<path d="M24.6005 14.1866L20.5339 14.2014L11.3338 29.3833L14.5496 31.2348L15.424 29.7517L24.6005 14.1866Z" fill="white"/>
<path d="M32.4699 14.1655C32.4359 13.3151 31.9754 12.5367 31.2542 12.0834L21.1447 6.26963C20.4312 5.91041 19.54 5.90989 18.8251 6.26946C18.7407 6.31202 8.99389 11.9649 8.99389 11.9649C8.85899 12.0295 8.72908 12.1065 8.60693 12.194C7.96308 12.6556 7.5706 13.3727 7.53011 14.1604V26.2006L9.26698 23.532L9.25181 14.2417C9.25388 14.2078 9.25819 14.1742 9.26405 14.1413C9.30333 13.9226 9.42548 13.7278 9.60915 13.596C9.65515 13.5632 19.5682 7.8249 19.5998 7.80905C19.8329 7.69207 20.1289 7.69069 20.3622 7.80543L30.3409 13.5451C30.5769 13.6955 30.7249 13.9505 30.738 14.2293V25.7375C30.726 25.9814 30.6295 26.2076 30.4398 26.3617L28.5051 27.4828L27.5069 28.0613L23.9391 30.129L20.3208 32.2258C20.1259 32.2962 19.898 32.2923 19.7049 32.2137L15.424 29.7515L14.5494 31.2346L18.3967 33.4495C18.5238 33.5219 18.6372 33.586 18.7302 33.6384C18.8743 33.7192 18.9725 33.7731 19.0071 33.79C19.2805 33.9228 19.6739 34 20.0284 34C20.3534 34 20.6704 33.9404 20.9703 33.8229L31.4799 27.7367C32.0831 27.2693 32.438 26.5645 32.4699 25.801V14.1655Z" fill="#96BEDC"/>
</svg>
