<svg width="40" height="40" viewBox="0 0 40 40" fill="none" xmlns="http://www.w3.org/2000/svg">
<path d="M0 8C0 3.58172 3.58172 0 8 0H32C36.4183 0 40 3.58172 40 8V32C40 36.4183 36.4183 40 32 40H8C3.58172 40 0 36.4183 0 32V8Z" fill="#0B0E11"/>
<path d="M12.6321 10.2888L20 6L27.3679 10.2888L24.6591 11.8732L20 9.16879L15.3409 11.8732L12.6321 10.2888ZM27.3679 15.6976L24.6591 14.1132L20 16.8176L15.3409 14.1132L12.6321 15.6976V18.8664L17.2912 21.5708V26.9795L20 28.5639L22.7088 26.9795V21.5708L27.3679 18.8664V15.6976ZM27.3679 24.2751V21.1064L24.6591 22.6908V25.8595L27.3679 24.2751ZM29.2912 25.3951L24.6321 28.0995V31.2683L32 26.9795V18.402L29.2912 19.9864V25.3951ZM26.5824 12.9932L29.2912 14.5776V17.7464L32 16.162V12.9932L29.2912 11.4088L26.5824 12.9932ZM17.2912 29.2468V32.4156L20 34L22.7088 32.4156V29.2468L20 30.8312L17.2912 29.2468ZM12.6321 24.2751L15.3409 25.8595V22.6908L12.6321 21.1064V24.2751ZM17.2912 12.9932L20 14.5776L22.7088 12.9932L20 11.4088L17.2912 12.9932ZM10.7088 14.5776L13.4176 12.9932L10.7088 11.4088L8 12.9932V16.162L10.7088 17.7464V14.5776ZM10.7088 19.9864L8 18.402V26.9795L15.3679 31.2683V28.0995L10.7088 25.3951V19.9864Z" fill="#F1B90C"/>
</svg>
